<?xml version="1.0" encoding="UTF-8"?>
<!DOCTYPE svg PUBLIC "-//W3C//DTD SVG 1.1//EN" "http://www.w3.org/Graphics/SVG/1.1/DTD/svg11.dtd">
<svg xmlns="http://www.w3.org/2000/svg" version="1.1" width="512px" height="128px" style="shape-rendering:geometricPrecision; text-rendering:geometricPrecision; image-rendering:optimizeQuality; fill-rule:evenodd; clip-rule:evenodd" xmlns:xlink="http://www.w3.org/1999/xlink">
<g><path style="opacity:1" fill="#2599f9" d="M 51.5,-0.5 C 59.5,-0.5 67.5,-0.5 75.5,-0.5C 108.378,7.88279 125.712,29.0495 127.5,63C 125.365,97.299 107.698,118.799 74.5,127.5C 67.5,127.5 60.5,127.5 53.5,127.5C 25.3802,120.714 7.38023,103.381 -0.5,75.5C -0.5,67.5 -0.5,59.5 -0.5,51.5C 6.5,23.8333 23.8333,6.5 51.5,-0.5 Z M 103.5,22.5 C 92.8983,35.774 81.8983,48.774 70.5,61.5C 81.9788,75.4799 93.6455,89.3132 105.5,103C 99.1667,103.667 92.8333,103.667 86.5,103C 78.6574,93.66 70.6574,84.4933 62.5,75.5C 54.3136,84.5187 46.3136,93.6854 38.5,103C 32.1667,103.667 25.8333,103.667 19.5,103C 31.6181,89.2601 43.6181,75.4268 55.5,61.5C 43.9605,48.2801 32.2939,35.1135 20.5,22C 27.4496,22.0953 34.4496,22.5953 41.5,23.5C 48.529,31.5254 55.529,39.5254 62.5,47.5C 70.3603,39.8064 77.6936,31.6397 84.5,23C 90.8246,22.5005 97.1579,22.3338 103.5,22.5 Z M 33.5,48.5 C 37.7834,53.1203 42.1168,57.787 46.5,62.5C 41.4504,67.8799 36.4504,73.2132 31.5,78.5C 34.8965,72.7198 38.5631,67.0531 42.5,61.5C 39.0592,57.4061 36.0592,53.0728 33.5,48.5 Z M 92.5,48.5 C 90.1408,53.3727 87.1408,57.8727 83.5,62C 87.4771,66.7986 90.8104,71.9653 93.5,77.5C 88.699,72.5284 84.0324,67.3618 79.5,62C 83.9642,57.5212 88.2976,53.0212 92.5,48.5 Z"/></g>
<g><path style="opacity:0.931" fill="#2498fa" d="M 387.5,19.5 C 391.603,18.7691 395.103,19.7691 398,22.5C 401.147,30.9468 404.48,39.2801 408,47.5C 414.114,38.3855 420.614,29.5522 427.5,21C 430.702,19.5167 434.036,19.1834 437.5,20C 438.701,20.9025 439.535,22.0692 440,23.5C 441.757,36.8111 443.257,50.1445 444.5,63.5C 439.833,63.5 435.167,63.5 430.5,63.5C 429.931,55.1463 429.098,46.8129 428,38.5C 422.69,47.6195 416.523,56.1195 409.5,64C 405.091,65.2618 401.257,64.4285 398,61.5C 395.527,53.7472 392.86,46.0806 390,38.5C 386.403,46.4586 382.903,54.4586 379.5,62.5C 374.833,63.8333 370.167,63.8333 365.5,62.5C 371.43,49.8756 377.263,37.209 383,24.5C 384.366,22.6383 385.866,20.9717 387.5,19.5 Z"/></g>
<g><path style="opacity:0.925" fill="#2498fa" d="M 136.5,21.5 C 142.987,20.346 149.654,20.1794 156.5,21C 159.676,25.0065 163.009,28.8398 166.5,32.5C 171.5,28.6667 176.5,24.8333 181.5,21C 187.833,20.3333 194.167,20.3333 200.5,21C 191.665,27.6734 182.999,34.5067 174.5,41.5C 180.647,48.8151 186.981,55.9818 193.5,63C 186.833,63.6667 180.167,63.6667 173.5,63C 169.991,58.6596 166.324,54.4929 162.5,50.5C 156.985,54.4252 151.652,58.5919 146.5,63C 140.5,63.6667 134.5,63.6667 128.5,63C 137.391,56.0615 146.057,48.8948 154.5,41.5C 148.819,34.4892 142.819,27.8226 136.5,21.5 Z"/></g>
<g><path style="opacity:0.931" fill="#2498fa" d="M 206.5,20.5 C 223.17,20.3334 239.837,20.5001 256.5,21C 253.167,24.6667 249.833,28.3333 246.5,32C 241.177,32.4994 235.844,32.666 230.5,32.5C 229.157,42.8889 227.491,53.2222 225.5,63.5C 220.833,63.5 216.167,63.5 211.5,63.5C 213.275,53.1853 214.941,42.8519 216.5,32.5C 209.825,32.6663 203.158,32.4996 196.5,32C 199.669,27.9992 203.003,24.1659 206.5,20.5 Z"/></g>
<g><path style="opacity:0.937" fill="#2498fa" d="M 263.5,20.5 C 275.838,20.3335 288.171,20.5001 300.5,21C 310.325,23.4756 313.825,29.6423 311,39.5C 308.714,44.7212 304.881,48.2212 299.5,50C 303.216,54.0482 306.55,58.3815 309.5,63C 303.167,63.6667 296.833,63.6667 290.5,63C 288.698,59.6999 286.698,56.5332 284.5,53.5C 277.532,52.503 270.532,52.1697 263.5,52.5C 263.276,56.1788 262.942,59.8455 262.5,63.5C 257.833,63.5 253.167,63.5 248.5,63.5C 249.283,56.1336 250.283,48.8002 251.5,41.5C 264.504,41.6666 277.504,41.4999 290.5,41C 293.757,40.5454 296.091,38.8787 297.5,36C 296.833,35 296.167,34 295.5,33C 281.488,32.8328 267.488,32.3328 253.5,31.5C 256.855,27.8133 260.189,24.1466 263.5,20.5 Z"/></g>
<g><path style="opacity:0.953" fill="#2498fa" d="M 320.5,20.5 C 337.503,20.3334 354.503,20.5001 371.5,21C 367.833,24.6667 364.167,28.3333 360.5,32C 351.173,32.4998 341.839,32.6665 332.5,32.5C 332.5,33.8333 332.5,35.1667 332.5,36.5C 343.505,36.3335 354.505,36.5002 365.5,37C 363.205,40.2974 360.538,43.2974 357.5,46C 348.5,46.3333 339.5,46.6667 330.5,47C 329.594,48.6995 329.261,50.5328 329.5,52.5C 341.505,52.3335 353.505,52.5001 365.5,53C 362.167,56.3333 358.833,59.6667 355.5,63C 341.504,63.4999 327.504,63.6666 313.5,63.5C 315.725,49.1494 318.058,34.816 320.5,20.5 Z"/></g>
<g><path style="opacity:0.953" fill="#2498fa" d="M 455.5,20.5 C 472.503,20.3334 489.503,20.5001 506.5,21C 502.833,24.6667 499.167,28.3333 495.5,32C 486.173,32.4998 476.839,32.6665 467.5,32.5C 467.5,33.8333 467.5,35.1667 467.5,36.5C 478.505,36.3335 489.505,36.5002 500.5,37C 498.205,40.2974 495.538,43.2974 492.5,46C 483.5,46.3333 474.5,46.6667 465.5,47C 464.594,48.6995 464.261,50.5328 464.5,52.5C 476.505,52.3335 488.505,52.5001 500.5,53C 497.167,56.3333 493.833,59.6667 490.5,63C 476.504,63.4999 462.504,63.6666 448.5,63.5C 450.725,49.1494 453.058,34.816 455.5,20.5 Z"/></g>
<g><path style="opacity:0.895" fill="#2498fa" d="M 149.5,70.5 C 155.176,70.3339 160.843,70.5006 166.5,71C 172.169,73.8151 174.002,78.3151 172,84.5C 170.402,89.0986 167.235,91.9319 162.5,93C 155.476,93.8311 148.476,93.6644 141.5,92.5C 142.547,88.2217 143.38,83.8884 144,79.5C 146.381,78.565 148.881,78.2317 151.5,78.5C 151.492,81.5448 151.159,84.5448 150.5,87.5C 153.85,87.665 157.183,87.4983 160.5,87C 166.402,83.9549 166.735,80.6216 161.5,77C 155.833,76.6667 150.167,76.3333 144.5,76C 146.373,74.2962 148.04,72.4628 149.5,70.5 Z"/></g>
<g><path style="opacity:0.908" fill="#2498fa" d="M 177.5,70.5 C 189.171,70.3335 200.838,70.5001 212.5,71C 214.873,75.5806 217.373,80.0806 220,84.5C 223.833,80 227.667,75.5 231.5,71C 234.833,70.3333 238.167,70.3333 241.5,71C 234.833,78.3333 228.167,85.6667 221.5,93C 218.653,93.9439 216.153,93.4439 214,91.5C 210.841,84.5122 207.174,77.8455 203,71.5C 201.5,73 200,74.5 198.5,76C 193.511,76.4993 188.511,76.6659 183.5,76.5C 183.5,77.5 183.5,78.5 183.5,79.5C 189.176,79.3339 194.843,79.5006 200.5,80C 199.167,81.3333 197.833,82.6667 196.5,84C 191.845,84.4992 187.179,84.6658 182.5,84.5C 182.5,85.5 182.5,86.5 182.5,87.5C 188.509,87.3338 194.509,87.5005 200.5,88C 198.787,89.3782 197.453,91.0448 196.5,93C 188.841,93.4997 181.174,93.6664 173.5,93.5C 174.299,85.7065 175.632,78.0398 177.5,70.5 Z"/></g>
<g><path style="opacity:0.929" fill="#2498fa" d="M 243.5,70.5 C 252.173,70.3336 260.84,70.5002 269.5,71C 267.833,72.6667 266.167,74.3333 264.5,76C 259.511,76.4993 254.511,76.6659 249.5,76.5C 249.5,77.5 249.5,78.5 249.5,79.5C 255.176,79.3339 260.843,79.5006 266.5,80C 265.167,81.3333 263.833,82.6667 262.5,84C 257.845,84.4992 253.179,84.6658 248.5,84.5C 248.5,85.5 248.5,86.5 248.5,87.5C 254.509,87.3338 260.509,87.5005 266.5,88C 264.787,89.3782 263.453,91.0448 262.5,93C 254.841,93.4997 247.174,93.6664 239.5,93.5C 240.299,85.7065 241.632,78.0398 243.5,70.5 Z"/></g>
<g><path style="opacity:0.898" fill="#2498fa" d="M 270.5,70.5 C 273.167,70.5 275.833,70.5 278.5,70.5C 277.873,76.0982 276.873,81.5982 275.5,87C 281.196,87.1701 286.862,87.6701 292.5,88.5C 291.352,90.1487 290.019,91.6487 288.5,93C 281.508,93.4996 274.508,93.6663 267.5,93.5C 268.609,85.8476 269.609,78.181 270.5,70.5 Z"/></g>
<g><path style="opacity:0.893" fill="#2498fa" d="M 303.5,70.5 C 308.844,70.334 314.177,70.5006 319.5,71C 324.862,71.8799 327.196,75.0466 326.5,80.5C 326.354,87.1523 323.02,91.319 316.5,93C 310.083,93.8696 303.749,93.5362 297.5,92C 293.633,88.3398 292.466,83.8398 294,78.5C 296.161,74.4952 299.328,71.8286 303.5,70.5 Z M 305.5,76.5 C 310.051,76.0527 314.384,76.7194 318.5,78.5C 320.04,85.6136 317.04,88.6136 309.5,87.5C 302.205,88.0612 299.705,85.0612 302,78.5C 303.302,77.9152 304.469,77.2485 305.5,76.5 Z"/></g>
<g><path style="opacity:0.899" fill="#2498fa" d="M 335.5,70.5 C 342.508,70.3337 349.508,70.5004 356.5,71C 359.516,72.5286 360.849,75.0286 360.5,78.5C 360.673,83.4959 358.34,86.6625 353.5,88C 347.843,88.4994 342.176,88.6661 336.5,88.5C 336.714,90.1439 336.38,91.6439 335.5,93C 333.19,93.4966 330.857,93.6633 328.5,93.5C 328.942,89.8455 329.276,86.1788 329.5,82.5C 336.508,82.6663 343.508,82.4996 350.5,82C 353.443,80.5409 353.776,78.8743 351.5,77C 344.809,76.8309 338.142,76.3309 331.5,75.5C 332.857,73.8144 334.19,72.1477 335.5,70.5 Z"/></g>
<g><path style="opacity:0.878" fill="#2498fa" d="M 367.5,70.5 C 369.604,70.2011 371.604,70.5344 373.5,71.5C 375.244,75.9082 377.078,80.2415 379,84.5C 381.973,80.0264 385.14,75.6931 388.5,71.5C 390.432,70.4798 392.432,70.3131 394.5,71C 396.336,78.3476 397.336,85.8476 397.5,93.5C 395.167,93.5 392.833,93.5 390.5,93.5C 389.869,89.1962 389.369,84.8629 389,80.5C 386.29,84.7533 383.457,88.9199 380.5,93C 378.5,93.6667 376.5,93.6667 374.5,93C 372.477,89.2701 370.644,85.4367 369,81.5C 367.5,85.1667 366,88.8333 364.5,92.5C 361.833,93.8333 359.167,93.8333 356.5,92.5C 359.795,84.9262 363.462,77.5929 367.5,70.5 Z"/></g>
<g><path style="opacity:0.929" fill="#2498fa" d="M 404.5,70.5 C 413.173,70.3336 421.84,70.5002 430.5,71C 428.833,72.6667 427.167,74.3333 425.5,76C 420.511,76.4993 415.511,76.6659 410.5,76.5C 410.5,77.5 410.5,78.5 410.5,79.5C 416.176,79.3339 421.843,79.5006 427.5,80C 426.167,81.3333 424.833,82.6667 423.5,84C 418.845,84.4992 414.179,84.6658 409.5,84.5C 409.5,85.5 409.5,86.5 409.5,87.5C 415.509,87.3338 421.509,87.5005 427.5,88C 425.787,89.3782 424.453,91.0448 423.5,93C 415.841,93.4997 408.174,93.6664 400.5,93.5C 401.299,85.7065 402.632,78.0398 404.5,70.5 Z"/></g>
<g><path style="opacity:0.876" fill="#2498fa" d="M 433.5,70.5 C 435.199,70.3398 436.866,70.5065 438.5,71C 442.349,74.6818 446.016,78.5151 449.5,82.5C 450.761,78.9391 451.594,75.2724 452,71.5C 454.401,70.3977 456.901,70.231 459.5,71C 458.154,78.4096 456.487,85.743 454.5,93C 452.956,94.1871 451.289,94.5205 449.5,94C 445.652,89.9844 441.652,86.1511 437.5,82.5C 436.294,86.0715 435.627,89.7382 435.5,93.5C 433.167,93.5 430.833,93.5 428.5,93.5C 428.999,85.4796 430.665,77.8129 433.5,70.5 Z"/></g>
<g><path style="opacity:0.906" fill="#2498fa" d="M 463.5,70.5 C 472.506,70.3336 481.506,70.5002 490.5,71C 487.203,75.6438 482.703,77.8105 477,77.5C 476.057,82.827 475.223,88.1603 474.5,93.5C 471.753,93.8134 469.086,93.48 466.5,92.5C 467.715,87.2081 468.715,81.8747 469.5,76.5C 466.102,76.8204 462.768,76.487 459.5,75.5C 460.857,73.8144 462.19,72.1477 463.5,70.5 Z"/></g>
</svg>
